<svg width="562" height="604" viewBox="0 0 562 604" fill="none" xmlns="http://www.w3.org/2000/svg">
<path
        d="M454.16 521.587C449.681 522.332 448.931 526.816 445.946 529.056C449.681 532.04 454.905 526.066 454.16 521.587ZM309.307 561.16C305.572 561.905 304.077 566.39 305.572 569.374L307.812 578.332C312.291 572.358 307.812 567.135 309.307 561.16ZM345.895 555.931C344.4 561.905 336.936 563.4 339.921 570.119C344.4 568.624 344.4 559.666 351.119 563.4C350.374 560.416 351.118 556.682 353.358 555.187L345.895 555.931ZM309.307 561.16C312.291 559.666 316.025 558.176 316.775 554.442C319.76 546.973 329.468 550.707 334.697 551.457C338.431 551.457 346.645 541.004 357.842 545.483C360.826 546.228 369.79 543.988 364.561 554.442C371.28 549.212 369.04 541.004 374.269 538.015C373.524 526.067 386.962 528.307 392.191 522.332V532.041C399.659 529.056 396.67 526.067 392.191 520.843C398.165 521.587 406.379 522.337 406.379 524.577C406.379 529.806 402.644 533.535 399.66 536.525C396.675 539.509 399.66 543.994 404.139 546.233C406.378 546.978 409.368 544.738 412.353 542.499C415.337 546.233 410.113 551.457 411.608 555.936C415.342 552.202 422.061 555.191 426.54 553.697C430.274 552.202 433.259 548.467 436.248 545.483C430.274 544.738 430.274 538.764 428.779 535.03C427.284 532.045 431.764 524.577 437.738 529.056C440.722 522.337 437.738 511.135 444.456 505.16C440.722 505.16 441.472 502.175 442.217 501.425C445.951 487.237 448.936 478.28 448.936 462.598C457.149 473.051 451.175 483.504 456.404 491.718C454.165 493.957 457.899 498.436 460.139 493.957C464.618 484.249 457.899 462.597 461.634 444.676C463.873 456.624 465.368 465.582 464.618 474.54H472.832C475.071 459.608 475.816 441.685 474.326 429.737C483.285 403.601 493.738 380.456 493.738 352.83C492.994 241.576 431.02 181.097 344.405 153.47C321.26 146.002 293.634 146.752 262.269 147.496C254.8 151.231 244.348 160.189 231.654 160.934C198.056 161.679 179.389 181.84 159.228 197.522C105.468 240.09 60.665 325.21 83.8117 420.042C89.0409 440.203 100.238 458.87 123.385 464.094C128.614 483.506 145.036 493.958 164.453 502.922C166.693 504.417 154 511.135 156.239 515.614C161.469 524.573 165.198 526.067 174.906 526.812C174.906 531.291 168.187 534.281 172.666 538.76C179.385 544.734 184.614 535.776 190.588 536.521C197.307 536.521 203.28 540.255 207.76 543.989C210.744 546.229 218.213 548.469 213.734 551.458C205.52 557.432 193.572 553.698 188.348 550.713L189.843 558.927C205.526 568.635 224.937 578.339 251.073 579.088C254.807 579.088 259.286 577.594 260.781 573.114C263.021 567.885 257.796 564.901 254.062 562.661L252.567 569.38C251.072 573.114 246.593 573.859 242.859 576.099C244.354 571.62 240.619 562.662 237.63 561.167C233.895 558.927 228.671 561.912 227.177 558.182C237.63 558.927 248.083 552.953 258.537 555.198L307.818 554.453L309.307 561.16ZM98 526.067C95.7604 523.827 94.2655 518.598 97.2552 516.359C95.0156 514.119 90.5364 511.13 90.5364 517.854C82.3228 513.374 85.3072 523.083 86.0572 529.051C43.4945 494.702 12.1358 452.145 5.41716 383.451C3.17756 361.801 -1.30163 336.41 2.43277 314.014C3.17756 310.28 6.16716 306.545 5.41716 302.066C4.67238 294.597 -1.30163 286.384 1.68277 281.16C13.6306 263.238 15.8708 234.118 28.5628 216.201C47.9748 190.065 69.6308 164.68 93.5214 140.789V127.352C109.204 98.9769 123.385 73.5916 148.776 61.6436C148.031 55.6696 148.031 48.9509 142.802 45.2169C131.604 36.2585 122.641 19.8316 127.87 1.91028C128.615 -1.07412 138.323 1.91028 139.068 10.1239C151.016 16.0979 162.213 31.7745 156.24 45.2172C153.256 52.686 161.469 58.6545 166.693 63.1385C173.412 60.1541 184.614 57.9094 190.589 66.123C193.573 70.6022 198.803 69.8573 204.777 67.6177C212.246 64.6333 207.017 51.9351 215.23 45.2164C221.204 39.9872 227.923 48.2008 231.657 48.2008C251.069 48.9456 263.017 59.3987 277.949 62.3888C290.641 64.6284 301.845 60.1492 309.309 55.67C319.762 76.5767 341.413 81.806 362.325 90.0194C444.461 122.123 516.138 164.686 548.245 246.819C572.141 307.298 560.937 402.873 533.313 452.153C537.792 461.861 532.568 473.059 525.099 478.289C520.62 481.273 513.901 479.033 511.662 485.758C510.917 490.237 513.901 499.195 504.943 502.184C480.303 511.143 469.85 537.277 449.688 551.465C445.954 552.21 437.741 553.705 439.235 561.174C439.98 564.908 435.501 559.679 435.501 557.439C431.022 561.919 427.287 566.398 422.064 569.387C425.048 571.627 434.011 573.122 438.49 568.642C442.969 571.627 436.251 575.361 435.506 576.111C422.813 590.299 395.933 593.283 376.522 587.309C373.537 596.267 362.334 591.788 360.095 602.992C348.147 599.257 334.71 597.763 324.256 603.737L321.272 595.523C323.512 589.549 331.725 592.539 333.965 588.054C292.897 589.549 257.803 581.335 218.981 577.601C208.528 570.132 189.861 568.643 179.407 567.148C188.366 570.882 190.605 579.841 198.819 582.831C203.299 584.326 208.528 585.07 214.502 588.805C195.09 584.326 174.929 585.82 163.731 578.352C157.757 573.872 155.518 567.154 157.757 561.925L159.252 552.967C165.226 551.472 169.705 557.446 174.935 552.222C163.737 541.769 151.79 532.06 144.32 518.623C142.081 519.368 138.346 519.368 134.612 519.368L132.372 518.623H130.133C124.904 517.128 123.414 525.342 121.174 524.597C112.961 521.613 100.268 523.102 97.2784 532.066L98 526.067Z" fill="#364151"/>
</svg>
