<?xml version="1.0" standalone="no"?>
<!DOCTYPE svg PUBLIC "-//W3C//DTD SVG 20010904//EN"
 "http://www.w3.org/TR/2001/REC-SVG-20010904/DTD/svg10.dtd">
<svg version="1.0" xmlns="http://www.w3.org/2000/svg"
 width="61.000000pt" height="41.000000pt" viewBox="0 0 61.000000 41.000000"
 preserveAspectRatio="xMidYMid meet">

<g transform="translate(0.000000,41.000000) scale(0.100000,-0.100000)"
fill="#494849" stroke="none">
<path d="M136 395 c-132 -47 -176 -215 -84 -321 54 -62 129 -85 206 -64 l42
11 -35 33 c-88 83 -88 219 0 302 l35 33 -37 10 c-50 14 -80 13 -127 -4z"/>
<path d="M388 403 c12 -2 30 -2 40 0 9 3 -1 5 -23 4 -22 0 -30 -2 -17 -4z"/>
<path d="M281 351 c-66 -66 -83 -123 -60 -204 12 -44 99 -137 127 -136 12 0
11 3 -7 10 l-23 9 35 39 c74 82 74 190 1 271 -32 35 -33 39 -17 49 10 6 12 11
6 11 -7 0 -35 -22 -62 -49z"/>
<path d="M485 381 c44 -20 74 -50 98 -96 9 -16 16 -26 17 -22 2 42 -98 138
-142 137 -7 0 5 -9 27 -19z"/>
<path d="M603 205 c0 -22 2 -30 4 -17 2 12 2 30 0 40 -3 9 -5 -1 -4 -23z"/>
<path d="M586 136 c-9 -35 -60 -91 -96 -106 -17 -7 -29 -15 -26 -17 9 -9 64
27 94 61 30 34 48 73 39 82 -2 3 -7 -6 -11 -20z"/>
<path d="M388 3 c12 -2 30 -2 40 0 9 3 -1 5 -23 4 -22 0 -30 -2 -17 -4z"/>
</g>
</svg>
